<svg xmlns="http://www.w3.org/2000/svg" version="1.1" xmlns:xlink="http://www.w3.org/1999/xlink" xmlns:svgjs="http://svgjs.dev/svgjs" width="1000" height="623" viewBox="0 0 1000 623"><g transform="matrix(1,0,0,1,-0.6060606060605664,0.2522267206477409)"><svg viewBox="0 0 396 247" data-background-color="#ffffff" preserveAspectRatio="xMidYMid meet" height="623" width="1000" xmlns="http://www.w3.org/2000/svg" xmlns:xlink="http://www.w3.org/1999/xlink"><g id="tight-bounds" transform="matrix(1,0,0,1,0.2400000000000091,-0.09999999999999432)"><svg viewBox="0 0 395.52 247.2" height="247.2" width="395.52"><g><svg></svg></g><g><svg viewBox="0 0 395.52 247.2" height="247.2" width="395.52"><g transform="matrix(1,0,0,1,75.54432,57.239704150943396)"><svg viewBox="0 0 244.43135999999998 132.7205916981132" height="132.7205916981132" width="244.43135999999998"><g><svg viewBox="0 0 244.43135999999998 132.7205916981132" height="132.7205916981132" width="244.43135999999998"><g><svg viewBox="0 0 244.43135999999998 132.7205916981132" height="132.7205916981132" width="244.43135999999998"><g><svg viewBox="0 0 244.43135999999998 132.7205916981132" height="132.7205916981132" width="244.43135999999998"><g><svg viewBox="0 0 244.43135999999998 132.7205916981132" height="132.7205916981132" width="244.43135999999998"><g><svg viewBox="0 0 244.43135999999998 132.7205916981132" height="132.7205916981132" width="244.43135999999998"><g transform="matrix(1,0,0,1,0,0)"><svg width="244.43135999999998" viewBox="1.4500000476837158 -38.04999923706055 95.38999938964844 51.79999923706055" height="132.7205916981132" data-palette-color="#ffcc00"><path d="M16.55 13.75L16.55 13.75Q13.75 13.75 11.78 12.03 9.8 10.3 9.8 6.75 9.8 3.2 13.2 0.1L13.2 0.1Q7.15-0.75 4.3-4.58 1.45-8.4 1.45-14.48 1.45-20.55 3.68-25.88 5.9-31.2 10.3-34.63 14.7-38.05 19.83-38.05 24.95-38.05 27.88-35.58 30.8-33.1 30.8-28.8 30.8-24.5 28.25-21.88 25.7-19.25 22.23-19.25 18.75-19.25 16.85-20.78 14.95-22.3 14.95-24.03 14.95-25.75 16.32-26.73 17.7-27.7 20.35-27.7L20.35-27.7Q19.7-27.05 19.7-25.98 19.7-24.9 20.35-24.1 21-23.3 22.33-23.3 23.65-23.3 24.83-24.7 26-26.1 26-28.53 26-30.95 24.75-32.3 23.5-33.65 20.95-33.65L20.95-33.65Q17.55-33.65 14.78-30.9 12-28.15 10.55-23.9 9.1-19.65 9.1-14.95L9.1-14.95Q9.1-10.9 10.85-7.8L10.85-7.8Q11.75-6.2 13.53-5.25 15.3-4.3 17.03-4.3 18.75-4.3 19.8-4.45L19.8-4.45 21.05-15.35 28.05-15.35 26.95-7.2Q32.35-10.05 34.05-13.4L34.05-13.4 36-10.65Q32.75-5.65 26.4-3.05L26.4-3.05 25.75 2.35Q25.35 6 24.3 8.45 23.25 10.9 21.83 11.98 20.4 13.05 19.2 13.4 18 13.75 16.55 13.75ZM14.25 6.6L14.25 6.6Q14.25 7.5 14.8 8.15 15.35 8.8 16.07 8.8 16.8 8.8 17.2 8.55 17.6 8.3 18.05 7.25 18.5 6.2 18.75 4.3L18.75 4.3 19.25 0.2Q14.25 3.3 14.25 6.6ZM42.45-11.2Q45.55-11.85 47.07-13.7 48.6-15.55 48.6-17.28 48.6-19 47.67-19.63 46.75-20.25 45.65-20.25L45.65-20.25Q43.3-20.25 41.52-17.63 39.75-15 39.75-11.38 39.75-7.75 41.47-5.98 43.2-4.2 45.75-4.2L45.75-4.2Q49.5-4.2 52.95-6.8 56.4-9.4 58.55-13.6L58.55-13.6Q59.65-12.55 60.55-11L60.55-11Q58.9-7.25 54.7-3.65L54.7-3.65Q52.6-1.9 49.72-0.8 46.85 0.3 43.8 0.3L43.8 0.3Q38.8 0.3 35.9-2.75L35.9-2.75Q32.8-6.05 32.8-11.2 32.8-16.35 36.67-20.2 40.55-24.05 45.95-24.05L45.95-24.05Q49.8-24.05 52.2-22.38 54.6-20.7 54.65-17.85L54.65-17.85Q54.65-14 51.57-11.6 48.5-9.2 43.15-8.25L43.15-8.25 42.45-11.2ZM71.2-17.5L71.2-17.5Q71.2-19.7 69.17-19.7 67.15-19.7 65.95-17.1L65.95-17.1Q71.34-12.85 71.34-7.55L71.34-7.55Q71.34-3.7 69.2-1.7 67.05 0.3 63.8 0.3 60.55 0.3 59.05-1.73 57.55-3.75 57.55-6.85L57.55-6.85Q57.55-7.8 57.59-8.25L57.59-8.25 59.34-23.5Q61.15-24.05 63-24.05L63-24.05Q66.05-24.05 66.05-21.8L66.05-21.8 66.05-21.7Q68.05-24.05 71.15-24.05L71.15-24.05Q73.4-24.05 74.65-23.03 75.9-22 75.9-20.3 75.9-18.6 74.62-17.53 73.34-16.45 71.3-16.45L71.3-16.45Q71.2-16.45 71.09-16.45L71.09-16.45Q71.2-17 71.2-17.5ZM68.09-7.8Q68.09-10.7 65.09-13.6L65.09-13.6Q64.2-6.4 64.2-6.35L64.2-6.35Q64.2-4.25 65.9-4.25L65.9-4.25Q68.09-4.25 68.09-7.8L68.09-7.8ZM90.94 0.45L90.94 0.45 77.04 0.15Q76.39 0.15 76.39-1.63 76.39-3.4 77.14-4.4L77.14-4.4Q77.89-6.4 81.29-10.25L81.29-10.25Q82.39-11.5 85.39-14.75 88.39-18 89.34-19.2L89.34-19.2 86.69-19.35Q85.94-17.55 84.52-16.43 83.09-15.3 81.34-15.3L81.34-15.3Q79.34-15.3 78.09-16.48 76.84-17.65 76.84-19.75 76.84-21.85 78.29-23.1 79.74-24.35 82.29-24.35L82.29-24.35 96.19-24.05Q96.84-24.05 96.84-22.35L96.84-22.35Q96.84-20.6 96.19-19.65L96.19-19.65Q95.59-18.55 94.47-17.32 93.34-16.1 91.19-14.08 89.04-12.05 88.19-11.2L88.19-11.2Q84.84-7.85 83.19-4.75L83.19-4.75 86.54-4.55Q87.29-6.35 88.72-7.48 90.14-8.6 91.89-8.6L91.89-8.6Q93.89-8.6 95.14-7.43 96.39-6.25 96.39-4.15 96.39-2.05 94.94-0.8 93.49 0.45 90.94 0.45ZM81.89-19.7L81.89-19.7Q80.14-19.7 80.14-18.55 80.14-17.4 81.44-17.4L81.44-17.4Q83.39-17.4 84.54-19.5L84.54-19.5 82.49-19.65Q82.19-19.7 81.89-19.7ZM91.34-4.2L91.34-4.2Q93.09-4.2 93.09-5.35 93.09-6.5 91.79-6.5L91.79-6.5Q89.84-6.5 88.69-4.4L88.69-4.4 90.74-4.25Q91.04-4.2 91.34-4.2Z" opacity="1" transform="matrix(1,0,0,1,0,0)" fill="#ffcc00" class="undefined-text-0" data-fill-palette-color="primary" id="text-0"></path></svg></g></svg></g></svg></g></svg></g></svg></g></svg></g></svg></g><g><path d="M0 123.6c0-68.262 55.338-123.6 123.6-123.6 36.786 0 69.819 16.07 92.461 41.574l-8.169 0c-21.367-21.953-51.237-35.589-84.292-35.59-64.957 0-117.616 52.658-117.616 117.616 0 64.957 52.658 117.616 117.616 117.616 33.055 0 62.925-13.636 84.292-35.59h8.169c-22.642 25.503-55.674 41.574-92.461 41.574-68.262 0-123.6-55.338-123.6-123.6z" fill="#ffcc00" stroke="transparent" data-fill-palette-color="tertiary"></path></g></svg></g><defs></defs></svg><rect width="395.52" height="247.2" fill="none" stroke="none" visibility="hidden"></rect></g></svg></g></svg>